<svg xmlns="http://www.w3.org/2000/svg" style="fill: white;" viewBox="0 0 194.7 223.17">
  <path id="logo" d="M481.3,391.5c-21.5-12.4-42.9-24.6-64.2-36.9-10.1-5.8-20.1-11.8-30.2-17.5-2.3-1.3-3.3-2.6-3.3-5.4.1-34.8,0-69.6.2-104.5a7.716,7.716,0,0,1,3.1-5.3c30.2-17.6,60.5-35,90.6-52.5,2.7-1.6,4.7-1.3,7.3.2q44.85,25.95,89.9,51.8c2.6,1.5,3.6,3.1,3.6,6.2-.1,34.5,0,69-.1,103.5,0,1.9-1,4.8-2.4,5.7C544.4,355.2,512.8,373.3,481.3,391.5Zm12.2-132c.1-.4.3-.7.4-1.1-7.9-3.2-15.6-7.3-23.8-9.5-8.7-2.3-17.4-.8-23.8,6.6-6.3,7.3-6.7,16.1-2.9,24.4a121.211,121.211,0,0,0,13.5,22.4c16.7,21.8,29.6,44.7,24.9,74.1,41.1-59,41.3-135.8,1.1-192.7,2.9,9.9,5.3,18.4,8,26.9,7.2,23.4,11.9,47.1,10.5,71.7-.5,8.7-3.8,16.2-12.4,20.1-7.9,3.6-15.7,3.3-22.6-2.2-8.9-7.1-13.9-16.4-13.8-28.1.1-12.6,6.1-18.7,18.7-17.6C478.8,255.5,486.2,257.9,493.5,259.5Zm2.1,19.9a16.653,16.653,0,0,0-16.5-17.1,16.955,16.955,0,1,0-.3,33.9A16.709,16.709,0,0,0,495.6,279.4Z" transform="translate(-383.6 -168.33)"/>
</svg>
