<?xml version="1.0" encoding="UTF-8" standalone="no"?>
<!-- Created with Inkscape (http://www.inkscape.org/) -->

<svg
   xmlns:dc="http://purl.org/dc/elements/1.1/"
   xmlns:cc="http://creativecommons.org/ns#"
   xmlns:rdf="http://www.w3.org/1999/02/22-rdf-syntax-ns#"
   xmlns:svg="http://www.w3.org/2000/svg"
   xmlns="http://www.w3.org/2000/svg"
   xmlns:sodipodi="http://sodipodi.sourceforge.net/DTD/sodipodi-0.dtd"
   xmlns:inkscape="http://www.inkscape.org/namespaces/inkscape"
   width="1280"
   height="190"
   id="svg2"
   version="1.1"
   inkscape:version="0.92.3 (2405546, 2018-03-11)"
   inkscape:export-filename="/Users/emske/Desktop/landscape.png"
   inkscape:export-xdpi="90"
   inkscape:export-ydpi="90"
   sodipodi:docname="vector1.svg">
  <defs
     id="defs4" />
  <sodipodi:namedview
     id="base"
     pagecolor="#ffffff"
     bordercolor="#666666"
     borderopacity="1.0"
     inkscape:pageopacity="0.0"
     inkscape:pageshadow="2"
     inkscape:zoom="1"
     inkscape:cx="706.90289"
     inkscape:cy="244.09082"
     inkscape:document-units="px"
     inkscape:current-layer="layer1"
     showgrid="false"
     inkscape:snap-to-guides="true"
     inkscape:snap-grids="true"
     objecttolerance="10000"
     guidetolerance="10000"
     showguides="true"
     inkscape:guide-bbox="true"
     inkscape:window-width="1600"
     inkscape:window-height="837"
     inkscape:window-x="-8"
     inkscape:window-y="-8"
     inkscape:window-maximized="1">
    <inkscape:grid
       type="xygrid"
       id="grid3755"
       empspacing="5"
       visible="true"
       enabled="true"
       snapvisiblegridlinesonly="true"
       dotted="false" />
  </sodipodi:namedview>
  <metadata
     id="metadata7">
    <rdf:RDF>
      <cc:Work
         rdf:about="">
        <dc:format>image/svg+xml</dc:format>
        <dc:type
           rdf:resource="http://purl.org/dc/dcmitype/StillImage" />
        <dc:title></dc:title>
      </cc:Work>
    </rdf:RDF>
  </metadata>
  <g
     inkscape:label="Layer 1"
     inkscape:groupmode="layer"
     id="layer1"
     transform="translate(0,-862.36218)">
    <path
       style="fill:#2ecc71;fill-opacity:1;stroke:none"
       d="m 2,904.36218 210,-20 100,20 350,-30 130,20 h 120 l 60,-20 70,10 90,-10 150,-10 V 1054.3622 H 2 Z"
       id="path3818"
       inkscape:connector-curvature="0"
       sodipodi:nodetypes="ccccccccccccc" />
    <path
       style="fill:#28b162;fill-opacity:1;stroke:none"
       d="m 312,944.36218 350,-70 -350,30 -100,-20 z"
       id="rect3846"
       inkscape:connector-curvature="0"
       sodipodi:nodetypes="ccccc" />
    <path
       sodipodi:nodetypes="ccccc"
       inkscape:connector-curvature="0"
       id="path3871"
       d="m 902,914.36218 70,-40 -60,20 H 792 Z"
       style="fill:#28b162;fill-opacity:1;stroke:none" />
    <path
       style="fill:#28b162;fill-opacity:1;stroke:none"
       d="m 1002,884.36218 -30,-10 70,10 z"
       id="path3873"
       inkscape:connector-curvature="0"
       sodipodi:nodetypes="cccc" />
    <path
       style="fill:#3498db;fill-opacity:1;stroke:none"
       d="m 312,944.36218 10,25 -85,40.00002 -125,15 -80,30 h 30 l 55,-25 125,-15 90,-45.00002 -15,-26 z"
       id="path4170"
       inkscape:connector-curvature="0"
       sodipodi:nodetypes="ccccccccccc" />
    <path
       style="fill:#2980b9;fill-opacity:1;stroke:none"
       d="m 312,944.36218 15,-10 -35,-10 40,-10 -20,-10 3.0625,-0.28125 21.9375,10.28125 -35,10 30,10 -15,9 z"
       id="path4172"
       inkscape:connector-curvature="0"
       sodipodi:nodetypes="ccccccccccc" />
    <g
       id="g4242"
       transform="translate(0,3)">
      <path
         style="fill:#757575;fill-opacity:1;stroke:none"
         d="m 475,927.36218 h 4 v -6 h -4 z"
         id="path4232"
         inkscape:connector-curvature="0"
         sodipodi:nodetypes="ccccc" />
      <path
         sodipodi:nodetypes="ccccc"
         inkscape:connector-curvature="0"
         id="path4234"
         d="m 477,927.36218 h 2 v -3 h -2 z"
         style="opacity:0.1;fill:#ecf0f1;fill-opacity:1;stroke:none" />
      <path
         sodipodi:nodetypes="cccccccccccccccccccc"
         inkscape:connector-curvature="0"
         id="path4236"
         d="m 477,896.36218 -0.9375,3.125 -0.9375,3.125 -1.125,3.75 h 1 l -3,6 h 1 l -3,7 h 1 l -3,6 h 18 l -3,-6 h 1 l -3,-7 h 1 l -3,-6 h 1 l -1.125,-3.75 -0.9375,-3.125 z"
         style="fill:#098c40;fill-opacity:1;stroke:none" />
      <path
         style="opacity:0.1;fill:#ecf0f1;fill-opacity:1;stroke:none"
         d="m 477,896.36218 v 29 h 9 l -3,-6 h 1 l -3,-7 h 1 l -3,-6 h 1 l -1.125,-3.75 -0.9375,-3.125 z"
         id="path4238"
         inkscape:connector-curvature="0"
         sodipodi:nodetypes="cccccccccccc" />
      <path
         sodipodi:nodetypes="ccccc"
         inkscape:connector-curvature="0"
         id="path4240"
         d="m 469,927.36218 h 16 l -2,2 h -12 z"
         style="fill:#28b162;fill-opacity:1;stroke:none" />
    </g>
    <g
       id="g4256"
       transform="translate(2,2)">
      <path
         sodipodi:nodetypes="ccccc"
         inkscape:connector-curvature="0"
         id="path4222"
         d="m 443,933.36218 h 4 v -6 h -4 z"
         style="fill:#757575;fill-opacity:1;stroke:none" />
      <path
         style="opacity:0.1;fill:#ecf0f1;fill-opacity:1;stroke:none"
         d="m 445,933.36218 h 2 v -3 h -2 z"
         id="path4224"
         inkscape:connector-curvature="0"
         sodipodi:nodetypes="ccccc" />
      <path
         style="fill:#098c40;fill-opacity:1;stroke:none"
         d="m 445,902.36218 -0.9375,3.125 -0.9375,3.125 -1.125,3.75 h 1 l -3,6 h 1 l -3,7 h 1 l -3,6 h 18 l -3,-6 h 1 l -3,-7 h 1 l -3,-6 h 1 l -1.125,-3.75 -0.9375,-3.125 z"
         id="path4226"
         inkscape:connector-curvature="0"
         sodipodi:nodetypes="cccccccccccccccccccc" />
      <path
         sodipodi:nodetypes="cccccccccccc"
         inkscape:connector-curvature="0"
         id="path4228"
         d="m 445,902.36218 v 29 h 9 l -3,-6 h 1 l -3,-7 h 1 l -3,-6 h 1 l -1.125,-3.75 -0.9375,-3.125 z"
         style="opacity:0.1;fill:#ecf0f1;fill-opacity:1;stroke:none" />
      <path
         style="fill:#28b162;fill-opacity:1;stroke:none"
         d="m 437,933.36218 h 16 l -2,2 h -12 z"
         id="path4230"
         inkscape:connector-curvature="0"
         sodipodi:nodetypes="ccccc" />
    </g>
    <g
       id="g4249"
       transform="translate(2,7)">
      <path
         style="fill:#757575;fill-opacity:1;stroke:none"
         d="m 463,938.36218 h 4 v -6 h -4 z"
         id="path4207"
         inkscape:connector-curvature="0"
         sodipodi:nodetypes="ccccc" />
      <path
         sodipodi:nodetypes="ccccc"
         inkscape:connector-curvature="0"
         id="path4217"
         d="m 465,938.36218 h 2 v -3 h -2 z"
         style="opacity:0.1;fill:#ecf0f1;fill-opacity:1;stroke:none" />
      <path
         sodipodi:nodetypes="cccccccccccccccccccc"
         transform="translate(0,412.36218)"
         inkscape:connector-curvature="0"
         id="path4213"
         d="m 465,495 -0.9375,3.125 -0.9375,3.125 L 462,505 h 1 l -3,6 h 1 l -3,7 h 1 l -3,6 h 18 l -3,-6 h 1 l -3,-7 h 1 l -3,-6 h 1 l -1.125,-3.75 -0.9375,-3.125 z"
         style="fill:#098c40;fill-opacity:1;stroke:none" />
      <path
         style="opacity:0.1;fill:#ecf0f1;fill-opacity:1;stroke:none"
         d="m 465,495 v 29 h 9 l -3,-6 h 1 l -3,-7 h 1 l -3,-6 h 1 l -1.125,-3.75 -0.9375,-3.125 z"
         id="path4215"
         inkscape:connector-curvature="0"
         transform="translate(0,412.36218)"
         sodipodi:nodetypes="cccccccccccc" />
      <path
         sodipodi:nodetypes="ccccc"
         inkscape:connector-curvature="0"
         id="rect4219"
         d="m 457,526 h 16 l -2,2 h -12 z"
         style="fill:#28b162;fill-opacity:1;stroke:none"
         transform="translate(0,412.36218)" />
    </g>
    <g
       id="g4263"
       transform="translate(12,22)">
      <path
         style="fill:#757575;fill-opacity:1;stroke:none"
         d="m 443,933.36218 h 4 v -6 h -4 z"
         id="path4265"
         inkscape:connector-curvature="0"
         sodipodi:nodetypes="ccccc" />
      <path
         sodipodi:nodetypes="ccccc"
         inkscape:connector-curvature="0"
         id="path4267"
         d="m 445,933.36218 h 2 v -3 h -2 z"
         style="opacity:0.1;fill:#ecf0f1;fill-opacity:1;stroke:none" />
      <path
         sodipodi:nodetypes="cccccccccccccccccccc"
         inkscape:connector-curvature="0"
         id="path4269"
         d="m 445,902.36218 -0.9375,3.125 -0.9375,3.125 -1.125,3.75 h 1 l -3,6 h 1 l -3,7 h 1 l -3,6 h 18 l -3,-6 h 1 l -3,-7 h 1 l -3,-6 h 1 l -1.125,-3.75 -0.9375,-3.125 z"
         style="fill:#098c40;fill-opacity:1;stroke:none" />
      <path
         style="opacity:0.1;fill:#ecf0f1;fill-opacity:1;stroke:none"
         d="m 445,902.36218 v 29 h 9 l -3,-6 h 1 l -3,-7 h 1 l -3,-6 h 1 l -1.125,-3.75 -0.9375,-3.125 z"
         id="path4271"
         inkscape:connector-curvature="0"
         sodipodi:nodetypes="cccccccccccc" />
      <path
         sodipodi:nodetypes="ccccc"
         inkscape:connector-curvature="0"
         id="path4273"
         d="m 437,933.36218 h 16 l -2,2 h -12 z"
         style="fill:#28b162;fill-opacity:1;stroke:none" />
    </g>
    <g
       transform="translate(47,27)"
       id="g4275">
      <path
         sodipodi:nodetypes="ccccc"
         inkscape:connector-curvature="0"
         id="path4277"
         d="m 443,933.36218 h 4 v -6 h -4 z"
         style="fill:#757575;fill-opacity:1;stroke:none" />
      <path
         style="opacity:0.1;fill:#ecf0f1;fill-opacity:1;stroke:none"
         d="m 445,933.36218 h 2 v -3 h -2 z"
         id="path4279"
         inkscape:connector-curvature="0"
         sodipodi:nodetypes="ccccc" />
      <path
         style="fill:#098c40;fill-opacity:1;stroke:none"
         d="m 445,902.36218 -0.9375,3.125 -0.9375,3.125 -1.125,3.75 h 1 l -3,6 h 1 l -3,7 h 1 l -3,6 h 18 l -3,-6 h 1 l -3,-7 h 1 l -3,-6 h 1 l -1.125,-3.75 -0.9375,-3.125 z"
         id="path4281"
         inkscape:connector-curvature="0"
         sodipodi:nodetypes="cccccccccccccccccccc" />
      <path
         sodipodi:nodetypes="cccccccccccc"
         inkscape:connector-curvature="0"
         id="path4283"
         d="m 445,902.36218 v 29 h 9 l -3,-6 h 1 l -3,-7 h 1 l -3,-6 h 1 l -1.125,-3.75 -0.9375,-3.125 z"
         style="opacity:0.1;fill:#ecf0f1;fill-opacity:1;stroke:none" />
      <path
         style="fill:#28b162;fill-opacity:1;stroke:none"
         d="m 437,933.36218 h 16 l -2,2 h -12 z"
         id="path4285"
         inkscape:connector-curvature="0"
         sodipodi:nodetypes="ccccc" />
    </g>
    <g
       id="g4303"
       transform="translate(27,47)">
      <path
         style="fill:#757575;fill-opacity:1;stroke:none"
         d="m 443,933.36218 h 4 v -6 h -4 z"
         id="path4305"
         inkscape:connector-curvature="0"
         sodipodi:nodetypes="ccccc" />
      <path
         sodipodi:nodetypes="ccccc"
         inkscape:connector-curvature="0"
         id="path4307"
         d="m 445,933.36218 h 2 v -3 h -2 z"
         style="opacity:0.1;fill:#ecf0f1;fill-opacity:1;stroke:none" />
      <path
         sodipodi:nodetypes="cccccccccccccccccccc"
         inkscape:connector-curvature="0"
         id="path4309"
         d="m 445,902.36218 -0.9375,3.125 -0.9375,3.125 -1.125,3.75 h 1 l -3,6 h 1 l -3,7 h 1 l -3,6 h 18 l -3,-6 h 1 l -3,-7 h 1 l -3,-6 h 1 l -1.125,-3.75 -0.9375,-3.125 z"
         style="fill:#098c40;fill-opacity:1;stroke:none" />
      <path
         style="opacity:0.1;fill:#ecf0f1;fill-opacity:1;stroke:none"
         d="m 445,902.36218 v 29 h 9 l -3,-6 h 1 l -3,-7 h 1 l -3,-6 h 1 l -1.125,-3.75 -0.9375,-3.125 z"
         id="path4311"
         inkscape:connector-curvature="0"
         sodipodi:nodetypes="cccccccccccc" />
      <path
         sodipodi:nodetypes="ccccc"
         inkscape:connector-curvature="0"
         id="path4313"
         d="m 437,933.36218 h 16 l -2,2 h -12 z"
         style="fill:#28b162;fill-opacity:1;stroke:none" />
    </g>
    <g
       transform="translate(-8,72)"
       id="g4315">
      <path
         sodipodi:nodetypes="ccccc"
         inkscape:connector-curvature="0"
         id="path4317"
         d="m 443,933.36218 h 4 v -6 h -4 z"
         style="fill:#757575;fill-opacity:1;stroke:none" />
      <path
         style="opacity:0.1;fill:#ecf0f1;fill-opacity:1;stroke:none"
         d="m 445,933.36218 h 2 v -3 h -2 z"
         id="path4319"
         inkscape:connector-curvature="0"
         sodipodi:nodetypes="ccccc" />
      <path
         style="fill:#098c40;fill-opacity:1;stroke:none"
         d="m 445,902.36218 -0.9375,3.125 -0.9375,3.125 -1.125,3.75 h 1 l -3,6 h 1 l -3,7 h 1 l -3,6 h 18 l -3,-6 h 1 l -3,-7 h 1 l -3,-6 h 1 l -1.125,-3.75 -0.9375,-3.125 z"
         id="path4321"
         inkscape:connector-curvature="0"
         sodipodi:nodetypes="cccccccccccccccccccc" />
      <path
         sodipodi:nodetypes="cccccccccccc"
         inkscape:connector-curvature="0"
         id="path4323"
         d="m 445,902.36218 v 29 h 9 l -3,-6 h 1 l -3,-7 h 1 l -3,-6 h 1 l -1.125,-3.75 -0.9375,-3.125 z"
         style="opacity:0.1;fill:#ecf0f1;fill-opacity:1;stroke:none" />
      <path
         style="fill:#28b162;fill-opacity:1;stroke:none"
         d="m 437,933.36218 h 16 l -2,2 h -12 z"
         id="path4325"
         inkscape:connector-curvature="0"
         sodipodi:nodetypes="ccccc" />
    </g>
    <g
       id="g4327"
       transform="translate(7,87)">
      <path
         style="fill:#757575;fill-opacity:1;stroke:none"
         d="m 443,933.36218 h 4 v -6 h -4 z"
         id="path4329"
         inkscape:connector-curvature="0"
         sodipodi:nodetypes="ccccc" />
      <path
         sodipodi:nodetypes="ccccc"
         inkscape:connector-curvature="0"
         id="path4331"
         d="m 445,933.36218 h 2 v -3 h -2 z"
         style="opacity:0.1;fill:#ecf0f1;fill-opacity:1;stroke:none" />
      <path
         sodipodi:nodetypes="cccccccccccccccccccc"
         inkscape:connector-curvature="0"
         id="path4333"
         d="m 445,902.36218 -0.9375,3.125 -0.9375,3.125 -1.125,3.75 h 1 l -3,6 h 1 l -3,7 h 1 l -3,6 h 18 l -3,-6 h 1 l -3,-7 h 1 l -3,-6 h 1 l -1.125,-3.75 -0.9375,-3.125 z"
         style="fill:#098c40;fill-opacity:1;stroke:none" />
      <path
         style="opacity:0.1;fill:#ecf0f1;fill-opacity:1;stroke:none"
         d="m 445,902.36218 v 29 h 9 l -3,-6 h 1 l -3,-7 h 1 l -3,-6 h 1 l -1.125,-3.75 -0.9375,-3.125 z"
         id="path4335"
         inkscape:connector-curvature="0"
         sodipodi:nodetypes="cccccccccccc" />
      <path
         sodipodi:nodetypes="ccccc"
         inkscape:connector-curvature="0"
         id="path4337"
         d="m 437,933.36218 h 16 l -2,2 h -12 z"
         style="fill:#28b162;fill-opacity:1;stroke:none" />
    </g>
    <g
       transform="translate(-78,7)"
       id="g4339">
      <path
         sodipodi:nodetypes="ccccc"
         inkscape:connector-curvature="0"
         id="path4341"
         d="m 443,933.36218 h 4 v -6 h -4 z"
         style="fill:#757575;fill-opacity:1;stroke:none" />
      <path
         style="opacity:0.1;fill:#ecf0f1;fill-opacity:1;stroke:none"
         d="m 445,933.36218 h 2 v -3 h -2 z"
         id="path4343"
         inkscape:connector-curvature="0"
         sodipodi:nodetypes="ccccc" />
      <path
         style="fill:#098c40;fill-opacity:1;stroke:none"
         d="m 445,902.36218 -0.9375,3.125 -0.9375,3.125 -1.125,3.75 h 1 l -3,6 h 1 l -3,7 h 1 l -3,6 h 18 l -3,-6 h 1 l -3,-7 h 1 l -3,-6 h 1 l -1.125,-3.75 -0.9375,-3.125 z"
         id="path4345"
         inkscape:connector-curvature="0"
         sodipodi:nodetypes="cccccccccccccccccccc" />
      <path
         sodipodi:nodetypes="cccccccccccc"
         inkscape:connector-curvature="0"
         id="path4347"
         d="m 445,902.36218 v 29 h 9 l -3,-6 h 1 l -3,-7 h 1 l -3,-6 h 1 l -1.125,-3.75 -0.9375,-3.125 z"
         style="opacity:0.1;fill:#ecf0f1;fill-opacity:1;stroke:none" />
      <path
         style="fill:#28b162;fill-opacity:1;stroke:none"
         d="m 437,933.36218 h 16 l -2,2 h -12 z"
         id="path4349"
         inkscape:connector-curvature="0"
         sodipodi:nodetypes="ccccc" />
    </g>
    <g
       id="g4351"
       transform="translate(-173,17)">
      <path
         style="fill:#757575;fill-opacity:1;stroke:none"
         d="m 443,933.36218 h 4 v -6 h -4 z"
         id="path4353"
         inkscape:connector-curvature="0"
         sodipodi:nodetypes="ccccc" />
      <path
         sodipodi:nodetypes="ccccc"
         inkscape:connector-curvature="0"
         id="path4355"
         d="m 445,933.36218 h 2 v -3 h -2 z"
         style="opacity:0.1;fill:#ecf0f1;fill-opacity:1;stroke:none" />
      <path
         sodipodi:nodetypes="cccccccccccccccccccc"
         inkscape:connector-curvature="0"
         id="path4357"
         d="m 445,902.36218 -0.9375,3.125 -0.9375,3.125 -1.125,3.75 h 1 l -3,6 h 1 l -3,7 h 1 l -3,6 h 18 l -3,-6 h 1 l -3,-7 h 1 l -3,-6 h 1 l -1.125,-3.75 -0.9375,-3.125 z"
         style="fill:#098c40;fill-opacity:1;stroke:none" />
      <path
         style="opacity:0.1;fill:#ecf0f1;fill-opacity:1;stroke:none"
         d="m 445,902.36218 v 29 h 9 l -3,-6 h 1 l -3,-7 h 1 l -3,-6 h 1 l -1.125,-3.75 -0.9375,-3.125 z"
         id="path4359"
         inkscape:connector-curvature="0"
         sodipodi:nodetypes="cccccccccccc" />
      <path
         sodipodi:nodetypes="ccccc"
         inkscape:connector-curvature="0"
         id="path4361"
         d="m 437,933.36218 h 16 l -2,2 h -12 z"
         style="fill:#28b162;fill-opacity:1;stroke:none" />
    </g>
    <g
       transform="translate(-149,76)"
       id="g4363">
      <path
         sodipodi:nodetypes="ccccc"
         inkscape:connector-curvature="0"
         id="path4365"
         d="m 443,933.36218 h 4 v -6 h -4 z"
         style="fill:#757575;fill-opacity:1;stroke:none" />
      <path
         style="opacity:0.1;fill:#ecf0f1;fill-opacity:1;stroke:none"
         d="m 445,933.36218 h 2 v -3 h -2 z"
         id="path4367"
         inkscape:connector-curvature="0"
         sodipodi:nodetypes="ccccc" />
      <path
         style="fill:#098c40;fill-opacity:1;stroke:none"
         d="m 445,902.36218 -0.9375,3.125 -0.9375,3.125 -1.125,3.75 h 1 l -3,6 h 1 l -3,7 h 1 l -3,6 h 18 l -3,-6 h 1 l -3,-7 h 1 l -3,-6 h 1 l -1.125,-3.75 -0.9375,-3.125 z"
         id="path4369"
         inkscape:connector-curvature="0"
         sodipodi:nodetypes="cccccccccccccccccccc" />
      <path
         sodipodi:nodetypes="cccccccccccc"
         inkscape:connector-curvature="0"
         id="path4371"
         d="m 445,902.36218 v 29 h 9 l -3,-6 h 1 l -3,-7 h 1 l -3,-6 h 1 l -1.125,-3.75 -0.9375,-3.125 z"
         style="opacity:0.1;fill:#ecf0f1;fill-opacity:1;stroke:none" />
      <path
         style="fill:#28b162;fill-opacity:1;stroke:none"
         d="m 437,933.36218 h 16 l -2,2 h -12 z"
         id="path4373"
         inkscape:connector-curvature="0"
         sodipodi:nodetypes="ccccc" />
    </g>
    <g
       transform="translate(340,-11)"
       id="g4375">
      <path
         sodipodi:nodetypes="ccccc"
         inkscape:connector-curvature="0"
         id="path4377"
         d="m 443,933.36218 h 4 v -6 h -4 z"
         style="fill:#757575;fill-opacity:1;stroke:none" />
      <path
         style="opacity:0.1;fill:#ecf0f1;fill-opacity:1;stroke:none"
         d="m 445,933.36218 h 2 v -3 h -2 z"
         id="path4379"
         inkscape:connector-curvature="0"
         sodipodi:nodetypes="ccccc" />
      <path
         style="fill:#098c40;fill-opacity:1;stroke:none"
         d="m 445,902.36218 -0.9375,3.125 -0.9375,3.125 -1.125,3.75 h 1 l -3,6 h 1 l -3,7 h 1 l -3,6 h 18 l -3,-6 h 1 l -3,-7 h 1 l -3,-6 h 1 l -1.125,-3.75 -0.9375,-3.125 z"
         id="path4381"
         inkscape:connector-curvature="0"
         sodipodi:nodetypes="cccccccccccccccccccc" />
      <path
         sodipodi:nodetypes="cccccccccccc"
         inkscape:connector-curvature="0"
         id="path4383"
         d="m 445,902.36218 v 29 h 9 l -3,-6 h 1 l -3,-7 h 1 l -3,-6 h 1 l -1.125,-3.75 -0.9375,-3.125 z"
         style="opacity:0.1;fill:#ecf0f1;fill-opacity:1;stroke:none" />
      <path
         style="fill:#28b162;fill-opacity:1;stroke:none"
         d="m 437,933.36218 h 16 l -2,2 h -12 z"
         id="path4385"
         inkscape:connector-curvature="0"
         sodipodi:nodetypes="ccccc" />
    </g>
    <g
       id="g4387"
       transform="translate(365,17)"
       inkscape:transform-center-x="27"
       inkscape:transform-center-y="-26.5">
      <path
         style="fill:#757575;fill-opacity:1;stroke:none"
         d="m 443,933.36218 h 4 v -6 h -4 z"
         id="path4389"
         inkscape:connector-curvature="0"
         sodipodi:nodetypes="ccccc" />
      <path
         sodipodi:nodetypes="ccccc"
         inkscape:connector-curvature="0"
         id="path4391"
         d="m 445,933.36218 h 2 v -3 h -2 z"
         style="opacity:0.1;fill:#ecf0f1;fill-opacity:1;stroke:none" />
      <path
         sodipodi:nodetypes="cccccccccccccccccccc"
         inkscape:connector-curvature="0"
         id="path4393"
         d="m 445,902.36218 -0.9375,3.125 -0.9375,3.125 -1.125,3.75 h 1 l -3,6 h 1 l -3,7 h 1 l -3,6 h 18 l -3,-6 h 1 l -3,-7 h 1 l -3,-6 h 1 l -1.125,-3.75 -0.9375,-3.125 z"
         style="fill:#098c40;fill-opacity:1;stroke:none" />
      <path
         style="opacity:0.1;fill:#ecf0f1;fill-opacity:1;stroke:none"
         d="m 445,902.36218 v 29 h 9 l -3,-6 h 1 l -3,-7 h 1 l -3,-6 h 1 l -1.125,-3.75 -0.9375,-3.125 z"
         id="path4395"
         inkscape:connector-curvature="0"
         sodipodi:nodetypes="cccccccccccc" />
      <path
         sodipodi:nodetypes="ccccc"
         inkscape:connector-curvature="0"
         id="path4397"
         d="m 437,933.36218 h 16 l -2,2 h -12 z"
         style="fill:#28b162;fill-opacity:1;stroke:none" />
    </g>
    <g
       inkscape:transform-center-y="-26.5"
       inkscape:transform-center-x="27"
       transform="translate(293,-11)"
       id="g4399">
      <path
         sodipodi:nodetypes="ccccc"
         inkscape:connector-curvature="0"
         id="path4401"
         d="m 443,933.36218 h 4 v -6 h -4 z"
         style="fill:#757575;fill-opacity:1;stroke:none" />
      <path
         style="opacity:0.1;fill:#ecf0f1;fill-opacity:1;stroke:none"
         d="m 445,933.36218 h 2 v -3 h -2 z"
         id="path4403"
         inkscape:connector-curvature="0"
         sodipodi:nodetypes="ccccc" />
      <path
         style="fill:#098c40;fill-opacity:1;stroke:none"
         d="m 445,902.36218 -0.9375,3.125 -0.9375,3.125 -1.125,3.75 h 1 l -3,6 h 1 l -3,7 h 1 l -3,6 h 18 l -3,-6 h 1 l -3,-7 h 1 l -3,-6 h 1 l -1.125,-3.75 -0.9375,-3.125 z"
         id="path4405"
         inkscape:connector-curvature="0"
         sodipodi:nodetypes="cccccccccccccccccccc" />
      <path
         sodipodi:nodetypes="cccccccccccc"
         inkscape:connector-curvature="0"
         id="path4407"
         d="m 445,902.36218 v 29 h 9 l -3,-6 h 1 l -3,-7 h 1 l -3,-6 h 1 l -1.125,-3.75 -0.9375,-3.125 z"
         style="opacity:0.1;fill:#ecf0f1;fill-opacity:1;stroke:none" />
      <path
         style="fill:#28b162;fill-opacity:1;stroke:none"
         d="m 437,933.36218 h 16 l -2,2 h -12 z"
         id="path4409"
         inkscape:connector-curvature="0"
         sodipodi:nodetypes="ccccc" />
    </g>
    <g
       id="g4411"
       transform="translate(321,19)"
       inkscape:transform-center-x="27"
       inkscape:transform-center-y="-26.5">
      <path
         style="fill:#757575;fill-opacity:1;stroke:none"
         d="m 443,933.36218 h 4 v -6 h -4 z"
         id="path4413"
         inkscape:connector-curvature="0"
         sodipodi:nodetypes="ccccc" />
      <path
         sodipodi:nodetypes="ccccc"
         inkscape:connector-curvature="0"
         id="path4415"
         d="m 445,933.36218 h 2 v -3 h -2 z"
         style="opacity:0.1;fill:#ecf0f1;fill-opacity:1;stroke:none" />
      <path
         sodipodi:nodetypes="cccccccccccccccccccc"
         inkscape:connector-curvature="0"
         id="path4417"
         d="m 445,902.36218 -0.9375,3.125 -0.9375,3.125 -1.125,3.75 h 1 l -3,6 h 1 l -3,7 h 1 l -3,6 h 18 l -3,-6 h 1 l -3,-7 h 1 l -3,-6 h 1 l -1.125,-3.75 -0.9375,-3.125 z"
         style="fill:#098c40;fill-opacity:1;stroke:none" />
      <path
         style="opacity:0.1;fill:#ecf0f1;fill-opacity:1;stroke:none"
         d="m 445,902.36218 v 29 h 9 l -3,-6 h 1 l -3,-7 h 1 l -3,-6 h 1 l -1.125,-3.75 -0.9375,-3.125 z"
         id="path4419"
         inkscape:connector-curvature="0"
         sodipodi:nodetypes="cccccccccccc" />
      <path
         sodipodi:nodetypes="ccccc"
         inkscape:connector-curvature="0"
         id="path4421"
         d="m 437,933.36218 h 16 l -2,2 h -12 z"
         style="fill:#28b162;fill-opacity:1;stroke:none" />
    </g>
    <g
       inkscape:transform-center-y="-26.5"
       inkscape:transform-center-x="27"
       transform="translate(345,27)"
       id="g4423">
      <path
         sodipodi:nodetypes="ccccc"
         inkscape:connector-curvature="0"
         id="path4425"
         d="m 443,933.36218 h 4 v -6 h -4 z"
         style="fill:#757575;fill-opacity:1;stroke:none" />
      <path
         style="opacity:0.1;fill:#ecf0f1;fill-opacity:1;stroke:none"
         d="m 445,933.36218 h 2 v -3 h -2 z"
         id="path4427"
         inkscape:connector-curvature="0"
         sodipodi:nodetypes="ccccc" />
      <path
         style="fill:#098c40;fill-opacity:1;stroke:none"
         d="m 445,902.36218 -0.9375,3.125 -0.9375,3.125 -1.125,3.75 h 1 l -3,6 h 1 l -3,7 h 1 l -3,6 h 18 l -3,-6 h 1 l -3,-7 h 1 l -3,-6 h 1 l -1.125,-3.75 -0.9375,-3.125 z"
         id="path4429"
         inkscape:connector-curvature="0"
         sodipodi:nodetypes="cccccccccccccccccccc" />
      <path
         sodipodi:nodetypes="cccccccccccc"
         inkscape:connector-curvature="0"
         id="path4431"
         d="m 445,902.36218 v 29 h 9 l -3,-6 h 1 l -3,-7 h 1 l -3,-6 h 1 l -1.125,-3.75 -0.9375,-3.125 z"
         style="opacity:0.1;fill:#ecf0f1;fill-opacity:1;stroke:none" />
      <path
         style="fill:#28b162;fill-opacity:1;stroke:none"
         d="m 437,933.36218 h 16 l -2,2 h -12 z"
         id="path4433"
         inkscape:connector-curvature="0"
         sodipodi:nodetypes="ccccc" />
    </g>
    <g
       id="g4435"
       transform="translate(223,6)"
       inkscape:transform-center-x="27"
       inkscape:transform-center-y="-26.5">
      <path
         style="fill:#757575;fill-opacity:1;stroke:none"
         d="m 443,933.36218 h 4 v -6 h -4 z"
         id="path4437"
         inkscape:connector-curvature="0"
         sodipodi:nodetypes="ccccc" />
      <path
         sodipodi:nodetypes="ccccc"
         inkscape:connector-curvature="0"
         id="path4439"
         d="m 445,933.36218 h 2 v -3 h -2 z"
         style="opacity:0.1;fill:#ecf0f1;fill-opacity:1;stroke:none" />
      <path
         sodipodi:nodetypes="cccccccccccccccccccc"
         inkscape:connector-curvature="0"
         id="path4441"
         d="m 445,902.36218 -0.9375,3.125 -0.9375,3.125 -1.125,3.75 h 1 l -3,6 h 1 l -3,7 h 1 l -3,6 h 18 l -3,-6 h 1 l -3,-7 h 1 l -3,-6 h 1 l -1.125,-3.75 -0.9375,-3.125 z"
         style="fill:#098c40;fill-opacity:1;stroke:none" />
      <path
         style="opacity:0.1;fill:#ecf0f1;fill-opacity:1;stroke:none"
         d="m 445,902.36218 v 29 h 9 l -3,-6 h 1 l -3,-7 h 1 l -3,-6 h 1 l -1.125,-3.75 -0.9375,-3.125 z"
         id="path4443"
         inkscape:connector-curvature="0"
         sodipodi:nodetypes="cccccccccccc" />
      <path
         sodipodi:nodetypes="ccccc"
         inkscape:connector-curvature="0"
         id="path4445"
         d="m 437,933.36218 h 16 l -2,2 h -12 z"
         style="fill:#28b162;fill-opacity:1;stroke:none" />
    </g>
    <g
       id="g4447"
       transform="translate(595,-13)"
       inkscape:transform-center-x="27"
       inkscape:transform-center-y="-26.5">
      <path
         style="fill:#757575;fill-opacity:1;stroke:none"
         d="m 443,933.36218 h 4 v -6 h -4 z"
         id="path4449"
         inkscape:connector-curvature="0"
         sodipodi:nodetypes="ccccc" />
      <path
         sodipodi:nodetypes="ccccc"
         inkscape:connector-curvature="0"
         id="path4451"
         d="m 445,933.36218 h 2 v -3 h -2 z"
         style="opacity:0.1;fill:#ecf0f1;fill-opacity:1;stroke:none" />
      <path
         sodipodi:nodetypes="cccccccccccccccccccc"
         inkscape:connector-curvature="0"
         id="path4453"
         d="m 445,902.36218 -0.9375,3.125 -0.9375,3.125 -1.125,3.75 h 1 l -3,6 h 1 l -3,7 h 1 l -3,6 h 18 l -3,-6 h 1 l -3,-7 h 1 l -3,-6 h 1 l -1.125,-3.75 -0.9375,-3.125 z"
         style="fill:#098c40;fill-opacity:1;stroke:none" />
      <path
         style="opacity:0.1;fill:#ecf0f1;fill-opacity:1;stroke:none"
         d="m 445,902.36218 v 29 h 9 l -3,-6 h 1 l -3,-7 h 1 l -3,-6 h 1 l -1.125,-3.75 -0.9375,-3.125 z"
         id="path4455"
         inkscape:connector-curvature="0"
         sodipodi:nodetypes="cccccccccccc" />
      <path
         sodipodi:nodetypes="ccccc"
         inkscape:connector-curvature="0"
         id="path4457"
         d="m 437,933.36218 h 16 l -2,2 h -12 z"
         style="fill:#28b162;fill-opacity:1;stroke:none" />
    </g>
    <g
       inkscape:transform-center-y="-26.5"
       inkscape:transform-center-x="27"
       transform="translate(623,17)"
       id="g4459">
      <path
         sodipodi:nodetypes="ccccc"
         inkscape:connector-curvature="0"
         id="path4461"
         d="m 443,933.36218 h 4 v -6 h -4 z"
         style="fill:#757575;fill-opacity:1;stroke:none" />
      <path
         style="opacity:0.1;fill:#ecf0f1;fill-opacity:1;stroke:none"
         d="m 445,933.36218 h 2 v -3 h -2 z"
         id="path4463"
         inkscape:connector-curvature="0"
         sodipodi:nodetypes="ccccc" />
      <path
         style="fill:#098c40;fill-opacity:1;stroke:none"
         d="m 445,902.36218 -0.9375,3.125 -0.9375,3.125 -1.125,3.75 h 1 l -3,6 h 1 l -3,7 h 1 l -3,6 h 18 l -3,-6 h 1 l -3,-7 h 1 l -3,-6 h 1 l -1.125,-3.75 -0.9375,-3.125 z"
         id="path4465"
         inkscape:connector-curvature="0"
         sodipodi:nodetypes="cccccccccccccccccccc" />
      <path
         sodipodi:nodetypes="cccccccccccc"
         inkscape:connector-curvature="0"
         id="path4467"
         d="m 445,902.36218 v 29 h 9 l -3,-6 h 1 l -3,-7 h 1 l -3,-6 h 1 l -1.125,-3.75 -0.9375,-3.125 z"
         style="opacity:0.1;fill:#ecf0f1;fill-opacity:1;stroke:none" />
      <path
         style="fill:#28b162;fill-opacity:1;stroke:none"
         d="m 437,933.36218 h 16 l -2,2 h -12 z"
         id="path4469"
         inkscape:connector-curvature="0"
         sodipodi:nodetypes="ccccc" />
    </g>
    <path
       sodipodi:nodetypes="ccccccccccccccccccccccccccccccccccccccccc"
       inkscape:connector-curvature="0"
       id="path4555"
       d="m 902,914.36218 6.25,11.25 -5,10 5,5 -46.25,13.75 -35,10 -75,20 -10,10 5,5 10,5.00002 60,10 -20,10 -35,30 h 5 l 30,-25 15,-10 h 10 5 l 20,5 30,5 50,15 10,10 h 5 l -10,-10 -35,-11.25 -10,-3.75 -20,-5 -30,-5 -10,-5 -55,-10 -20,-5.00002 -5,-5 10,-10 45,-10 50,-15 55,-15 5,-5 -5,-5 5,-5 -10,-20 z"
       style="fill:#28b162;fill-opacity:1;stroke:none" />
    <g
       inkscape:transform-center-y="-26.5"
       inkscape:transform-center-x="27"
       transform="translate(459,77)"
       id="g4471">
      <path
         sodipodi:nodetypes="ccccc"
         inkscape:connector-curvature="0"
         id="path4473"
         d="m 443,933.36218 h 4 v -6 h -4 z"
         style="fill:#757575;fill-opacity:1;stroke:none" />
      <path
         style="opacity:0.1;fill:#ecf0f1;fill-opacity:1;stroke:none"
         d="m 445,933.36218 h 2 v -3 h -2 z"
         id="path4475"
         inkscape:connector-curvature="0"
         sodipodi:nodetypes="ccccc" />
      <path
         style="fill:#098c40;fill-opacity:1;stroke:none"
         d="m 445,902.36218 -0.9375,3.125 -0.9375,3.125 -1.125,3.75 h 1 l -3,6 h 1 l -3,7 h 1 l -3,6 h 18 l -3,-6 h 1 l -3,-7 h 1 l -3,-6 h 1 l -1.125,-3.75 -0.9375,-3.125 z"
         id="path4477"
         inkscape:connector-curvature="0"
         sodipodi:nodetypes="cccccccccccccccccccc" />
      <path
         sodipodi:nodetypes="cccccccccccc"
         inkscape:connector-curvature="0"
         id="path4479"
         d="m 445,902.36218 v 29 h 9 l -3,-6 h 1 l -3,-7 h 1 l -3,-6 h 1 l -1.125,-3.75 -0.9375,-3.125 z"
         style="opacity:0.1;fill:#ecf0f1;fill-opacity:1;stroke:none" />
      <path
         style="fill:#28b162;fill-opacity:1;stroke:none"
         d="m 437,933.36218 h 16 l -2,2 h -12 z"
         id="path4481"
         inkscape:connector-curvature="0"
         sodipodi:nodetypes="ccccc" />
    </g>
    <g
       inkscape:transform-center-y="-26.5"
       inkscape:transform-center-x="27"
       transform="translate(570,7)"
       id="g4483">
      <path
         sodipodi:nodetypes="ccccc"
         inkscape:connector-curvature="0"
         id="path4485"
         d="m 443,933.36218 h 4 v -6 h -4 z"
         style="fill:#757575;fill-opacity:1;stroke:none" />
      <path
         style="opacity:0.1;fill:#ecf0f1;fill-opacity:1;stroke:none"
         d="m 445,933.36218 h 2 v -3 h -2 z"
         id="path4487"
         inkscape:connector-curvature="0"
         sodipodi:nodetypes="ccccc" />
      <path
         style="fill:#098c40;fill-opacity:1;stroke:none"
         d="m 445,902.36218 -0.9375,3.125 -0.9375,3.125 -1.125,3.75 h 1 l -3,6 h 1 l -3,7 h 1 l -3,6 h 18 l -3,-6 h 1 l -3,-7 h 1 l -3,-6 h 1 l -1.125,-3.75 -0.9375,-3.125 z"
         id="path4489"
         inkscape:connector-curvature="0"
         sodipodi:nodetypes="cccccccccccccccccccc" />
      <path
         sodipodi:nodetypes="cccccccccccc"
         inkscape:connector-curvature="0"
         id="path4491"
         d="m 445,902.36218 v 29 h 9 l -3,-6 h 1 l -3,-7 h 1 l -3,-6 h 1 l -1.125,-3.75 -0.9375,-3.125 z"
         style="opacity:0.1;fill:#ecf0f1;fill-opacity:1;stroke:none" />
      <path
         style="fill:#28b162;fill-opacity:1;stroke:none"
         d="m 437,933.36218 h 16 l -2,2 h -12 z"
         id="path4493"
         inkscape:connector-curvature="0"
         sodipodi:nodetypes="ccccc" />
    </g>
    <g
       id="g4495"
       transform="translate(598,37)"
       inkscape:transform-center-x="27"
       inkscape:transform-center-y="-26.5">
      <path
         style="fill:#757575;fill-opacity:1;stroke:none"
         d="m 443,933.36218 h 4 v -6 h -4 z"
         id="path4497"
         inkscape:connector-curvature="0"
         sodipodi:nodetypes="ccccc" />
      <path
         sodipodi:nodetypes="ccccc"
         inkscape:connector-curvature="0"
         id="path4499"
         d="m 445,933.36218 h 2 v -3 h -2 z"
         style="opacity:0.1;fill:#ecf0f1;fill-opacity:1;stroke:none" />
      <path
         sodipodi:nodetypes="cccccccccccccccccccc"
         inkscape:connector-curvature="0"
         id="path4501"
         d="m 445,902.36218 -0.9375,3.125 -0.9375,3.125 -1.125,3.75 h 1 l -3,6 h 1 l -3,7 h 1 l -3,6 h 18 l -3,-6 h 1 l -3,-7 h 1 l -3,-6 h 1 l -1.125,-3.75 -0.9375,-3.125 z"
         style="fill:#098c40;fill-opacity:1;stroke:none" />
      <path
         style="opacity:0.1;fill:#ecf0f1;fill-opacity:1;stroke:none"
         d="m 445,902.36218 v 29 h 9 l -3,-6 h 1 l -3,-7 h 1 l -3,-6 h 1 l -1.125,-3.75 -0.9375,-3.125 z"
         id="path4503"
         inkscape:connector-curvature="0"
         sodipodi:nodetypes="cccccccccccc" />
      <path
         sodipodi:nodetypes="ccccc"
         inkscape:connector-curvature="0"
         id="path4505"
         d="m 437,933.36218 h 16 l -2,2 h -12 z"
         style="fill:#28b162;fill-opacity:1;stroke:none" />
    </g>
    <g
       id="g4507"
       transform="translate(560,37)"
       inkscape:transform-center-x="27"
       inkscape:transform-center-y="-26.5">
      <path
         style="fill:#757575;fill-opacity:1;stroke:none"
         d="m 443,933.36218 h 4 v -6 h -4 z"
         id="path4509"
         inkscape:connector-curvature="0"
         sodipodi:nodetypes="ccccc" />
      <path
         sodipodi:nodetypes="ccccc"
         inkscape:connector-curvature="0"
         id="path4511"
         d="m 445,933.36218 h 2 v -3 h -2 z"
         style="opacity:0.1;fill:#ecf0f1;fill-opacity:1;stroke:none" />
      <path
         sodipodi:nodetypes="cccccccccccccccccccc"
         inkscape:connector-curvature="0"
         id="path4513"
         d="m 445,902.36218 -0.9375,3.125 -0.9375,3.125 -1.125,3.75 h 1 l -3,6 h 1 l -3,7 h 1 l -3,6 h 18 l -3,-6 h 1 l -3,-7 h 1 l -3,-6 h 1 l -1.125,-3.75 -0.9375,-3.125 z"
         style="fill:#098c40;fill-opacity:1;stroke:none" />
      <path
         style="opacity:0.1;fill:#ecf0f1;fill-opacity:1;stroke:none"
         d="m 445,902.36218 v 29 h 9 l -3,-6 h 1 l -3,-7 h 1 l -3,-6 h 1 l -1.125,-3.75 -0.9375,-3.125 z"
         id="path4515"
         inkscape:connector-curvature="0"
         sodipodi:nodetypes="cccccccccccc" />
      <path
         sodipodi:nodetypes="ccccc"
         inkscape:connector-curvature="0"
         id="path4517"
         d="m 437,933.36218 h 16 l -2,2 h -12 z"
         style="fill:#28b162;fill-opacity:1;stroke:none" />
    </g>
    <g
       id="g4519"
       transform="translate(329,51)">
      <path
         style="fill:#757575;fill-opacity:1;stroke:none"
         d="m 443,933.36218 h 4 v -6 h -4 z"
         id="path4521"
         inkscape:connector-curvature="0"
         sodipodi:nodetypes="ccccc" />
      <path
         sodipodi:nodetypes="ccccc"
         inkscape:connector-curvature="0"
         id="path4523"
         d="m 445,933.36218 h 2 v -3 h -2 z"
         style="opacity:0.1;fill:#ecf0f1;fill-opacity:1;stroke:none" />
      <path
         sodipodi:nodetypes="cccccccccccccccccccc"
         inkscape:connector-curvature="0"
         id="path4525"
         d="m 445,902.36218 -0.9375,3.125 -0.9375,3.125 -1.125,3.75 h 1 l -3,6 h 1 l -3,7 h 1 l -3,6 h 18 l -3,-6 h 1 l -3,-7 h 1 l -3,-6 h 1 l -1.125,-3.75 -0.9375,-3.125 z"
         style="fill:#098c40;fill-opacity:1;stroke:none" />
      <path
         style="opacity:0.1;fill:#ecf0f1;fill-opacity:1;stroke:none"
         d="m 445,902.36218 v 29 h 9 l -3,-6 h 1 l -3,-7 h 1 l -3,-6 h 1 l -1.125,-3.75 -0.9375,-3.125 z"
         id="path4527"
         inkscape:connector-curvature="0"
         sodipodi:nodetypes="cccccccccccc" />
      <path
         sodipodi:nodetypes="ccccc"
         inkscape:connector-curvature="0"
         id="path4529"
         d="m 437,933.36218 h 16 l -2,2 h -12 z"
         style="fill:#28b162;fill-opacity:1;stroke:none" />
    </g>
    <g
       transform="translate(348,83)"
       id="g4531">
      <path
         sodipodi:nodetypes="ccccc"
         inkscape:connector-curvature="0"
         id="path4533"
         d="m 443,933.36218 h 4 v -6 h -4 z"
         style="fill:#757575;fill-opacity:1;stroke:none" />
      <path
         style="opacity:0.1;fill:#ecf0f1;fill-opacity:1;stroke:none"
         d="m 445,933.36218 h 2 v -3 h -2 z"
         id="path4535"
         inkscape:connector-curvature="0"
         sodipodi:nodetypes="ccccc" />
      <path
         style="fill:#098c40;fill-opacity:1;stroke:none"
         d="m 445,902.36218 -0.9375,3.125 -0.9375,3.125 -1.125,3.75 h 1 l -3,6 h 1 l -3,7 h 1 l -3,6 h 18 l -3,-6 h 1 l -3,-7 h 1 l -3,-6 h 1 l -1.125,-3.75 -0.9375,-3.125 z"
         id="path4537"
         inkscape:connector-curvature="0"
         sodipodi:nodetypes="cccccccccccccccccccc" />
      <path
         sodipodi:nodetypes="cccccccccccc"
         inkscape:connector-curvature="0"
         id="path4539"
         d="m 445,902.36218 v 29 h 9 l -3,-6 h 1 l -3,-7 h 1 l -3,-6 h 1 l -1.125,-3.75 -0.9375,-3.125 z"
         style="opacity:0.1;fill:#ecf0f1;fill-opacity:1;stroke:none" />
      <path
         style="fill:#28b162;fill-opacity:1;stroke:none"
         d="m 437,933.36218 h 16 l -2,2 h -12 z"
         id="path4541"
         inkscape:connector-curvature="0"
         sodipodi:nodetypes="ccccc" />
    </g>
    <g
       id="g4543"
       transform="translate(317,104)"
       inkscape:transform-center-x="-21"
       inkscape:transform-center-y="-42.5">
      <path
         style="fill:#757575;fill-opacity:1;stroke:none"
         d="m 443,933.36218 h 4 v -6 h -4 z"
         id="path4545"
         inkscape:connector-curvature="0"
         sodipodi:nodetypes="ccccc" />
      <path
         sodipodi:nodetypes="ccccc"
         inkscape:connector-curvature="0"
         id="path4547"
         d="m 445,933.36218 h 2 v -3 h -2 z"
         style="opacity:0.1;fill:#ecf0f1;fill-opacity:1;stroke:none" />
      <path
         sodipodi:nodetypes="cccccccccccccccccccc"
         inkscape:connector-curvature="0"
         id="path4549"
         d="m 445,902.36218 -0.9375,3.125 -0.9375,3.125 -1.125,3.75 h 1 l -3,6 h 1 l -3,7 h 1 l -3,6 h 18 l -3,-6 h 1 l -3,-7 h 1 l -3,-6 h 1 l -1.125,-3.75 -0.9375,-3.125 z"
         style="fill:#098c40;fill-opacity:1;stroke:none" />
      <path
         style="opacity:0.1;fill:#ecf0f1;fill-opacity:1;stroke:none"
         d="m 445,902.36218 v 29 h 9 l -3,-6 h 1 l -3,-7 h 1 l -3,-6 h 1 l -1.125,-3.75 -0.9375,-3.125 z"
         id="path4551"
         inkscape:connector-curvature="0"
         sodipodi:nodetypes="cccccccccccc" />
      <path
         sodipodi:nodetypes="ccccc"
         inkscape:connector-curvature="0"
         id="path4553"
         d="m 437,933.36218 h 16 l -2,2 h -12 z"
         style="fill:#28b162;fill-opacity:1;stroke:none" />
    </g>
  </g>
</svg>
